<?xml version="1.0" encoding="UTF-8" standalone="no"?>
<svg
   xmlns:dc="http://purl.org/dc/elements/1.1/"
   xmlns:cc="http://creativecommons.org/ns#"
   xmlns:rdf="http://www.w3.org/1999/02/22-rdf-syntax-ns#"
   xmlns:svg="http://www.w3.org/2000/svg"
   xmlns="http://www.w3.org/2000/svg"
   viewBox="0 0 755.90668 755.90668"
   height="755.90668"
   width="755.90668"
   xml:space="preserve"
   id="svg2"
   version="1.1"><metadata
     id="metadata8"><rdf:RDF><cc:Work
         rdf:about=""><dc:format>image/svg+xml</dc:format><dc:type
           rdf:resource="http://purl.org/dc/dcmitype/StillImage" /></cc:Work></rdf:RDF></metadata><defs
     id="defs6"><clipPath
       id="clipPath18"
       clipPathUnits="userSpaceOnUse"><path
         id="path16"
         d="M 0,566.93 H 566.93 V 0 H 0 Z" /></clipPath></defs><g
     transform="matrix(1.3333333,0,0,-1.3333333,0,755.90667)"
     id="g10"><g
       id="g12"><g
         clip-path="url(#clipPath18)"
         id="g14"><g
           transform="translate(183.1318,278.9075)"
           id="g20"><path
             id="path22"
             style="fill:#91268f;fill-opacity:1;fill-rule:nonzero;stroke:none"
             d="m 0,0 c -8.869,0 -16.084,-7.215 -16.084,-16.084 0,-1.953 0.351,-3.826 0.991,-5.559 l -35.342,-26.36 c -1.536,1.177 -3.289,2.083 -5.187,2.648 v 41.798 c 6.646,1.976 11.508,8.138 11.508,15.417 0,1.965 -0.356,3.849 -1.005,5.592 l 34.203,25.684 c 2.673,-1.981 5.98,-3.156 9.556,-3.156 8.868,0 16.084,7.215 16.084,16.084 0,8.868 -7.216,16.084 -16.084,16.084 -8.869,0 -16.084,-7.216 -16.084,-16.084 0,-2.006 0.372,-3.924 1.045,-5.696 L -50.552,24.721 c -2.689,2.022 -6.03,3.222 -9.646,3.222 -3.599,0 -6.927,-1.188 -9.61,-3.194 l -33.79,25.359 c 0.662,1.759 1.028,3.663 1.028,5.651 0,2.993 -0.825,5.797 -2.255,8.2 l 33.47,25.135 c 2.674,-1.983 5.98,-3.157 9.557,-3.157 8.868,0 16.084,7.215 16.084,16.084 0,8.869 -7.216,16.084 -16.084,16.084 -8.869,0 -16.084,-7.215 -16.084,-16.084 0,-2.005 0.372,-3.924 1.045,-5.696 l -34.772,-26.111 c -2.129,1.042 -4.52,1.629 -7.046,1.629 -8.868,0 -16.083,-7.215 -16.083,-16.084 0,-8.869 7.215,-16.084 16.083,-16.084 3.594,0 6.916,1.185 9.597,3.185 L -75.26,17.495 c -0.659,-1.755 -1.022,-3.653 -1.022,-5.635 0,-7.307 4.9,-13.488 11.585,-15.439 v -41.755 c -1.864,-0.544 -3.591,-1.413 -5.109,-2.548 l -34.173,25.661 c 0.662,1.76 1.027,3.664 1.027,5.654 0,8.867 -7.215,16.083 -16.084,16.083 -8.868,0 -16.084,-7.216 -16.084,-16.083 0,-8.87 7.216,-16.086 16.084,-16.086 3.594,0 6.915,1.185 9.596,3.184 l 34.18,-25.667 c -0.659,-1.755 -1.022,-3.654 -1.022,-5.636 0,-8.87 7.215,-16.084 16.084,-16.084 8.869,0 16.084,7.214 16.084,16.084 0,1.913 -0.338,3.749 -0.954,5.452 l 35.393,26.397 c 2.694,-2.036 6.046,-3.245 9.675,-3.245 8.869,0 16.084,7.215 16.084,16.084 C 16.084,-7.215 8.869,0 0,0 m -1.36,63.073 c 3.865,0 7.009,-3.144 7.009,-7.009 0,-3.865 -3.144,-7.009 -7.009,-7.009 -2.215,0 -4.191,1.033 -5.476,2.642 -0.028,0.039 -0.051,0.079 -0.08,0.118 -0.038,0.05 -0.08,0.095 -0.12,0.144 -0.838,1.155 -1.333,2.572 -1.333,4.105 0,3.865 3.144,7.009 7.009,7.009 m -60.438,45.957 c 3.865,0 7.009,-3.144 7.009,-7.009 0,-3.864 -3.144,-7.009 -7.009,-7.009 -2.214,0 -4.189,1.032 -5.474,2.639 -0.028,0.04 -0.052,0.082 -0.082,0.121 -0.039,0.052 -0.082,0.098 -0.122,0.147 -0.836,1.154 -1.331,2.571 -1.331,4.102 0,3.865 3.144,7.009 7.009,7.009 m -63.865,-53.271 c 0,3.865 3.144,7.009 7.008,7.009 1.652,0 3.172,-0.576 4.371,-1.536 0.03,-0.025 0.061,-0.048 0.091,-0.072 1.555,-1.286 2.548,-3.23 2.548,-5.401 0,-3.865 -3.145,-7.009 -7.01,-7.009 -3.864,0 -7.008,3.144 -7.008,7.009 M -67.207,11.86 c 0,1.377 0.401,2.661 1.09,3.745 0.128,0.134 0.25,0.276 0.364,0.428 0.11,0.146 0.207,0.298 0.296,0.453 1.286,1.459 3.166,2.382 5.259,2.382 3.865,0 7.009,-3.144 7.009,-7.008 0,-3.865 -3.144,-7.009 -7.009,-7.009 -3.865,0 -7.009,3.144 -7.009,7.009 m -58.838,-28.427 c 0,3.864 3.145,7.007 7.009,7.007 3.865,0 7.009,-3.143 7.009,-7.007 0,-3.866 -3.144,-7.011 -7.009,-7.011 -3.864,0 -7.009,3.145 -7.009,7.011 m 65.847,-51.215 c -3.865,0 -7.009,3.144 -7.009,7.01 0,1.376 0.401,2.662 1.09,3.747 0.128,0.131 0.25,0.273 0.364,0.425 0.109,0.146 0.206,0.298 0.296,0.454 1.161,1.318 2.81,2.198 4.662,2.355 0.208,-0.029 0.419,-0.05 0.635,-0.05 0.208,0 0.41,0.019 0.61,0.046 3.562,-0.328 6.361,-3.332 6.361,-6.977 0,-3.866 -3.144,-7.01 -7.009,-7.01 M 0,-23.093 c -3.865,0 -7.009,3.144 -7.009,7.009 0,3.865 3.144,7.009 7.009,7.009 3.865,0 7.009,-3.144 7.009,-7.009 0,-3.865 -3.144,-7.009 -7.009,-7.009" /></g><g
           transform="translate(225.3003,204.8353)"
           id="g24"><path
             id="path26"
             style="fill:#91268f;fill-opacity:1;fill-rule:nonzero;stroke:none"
             d="M 0,0 H -5.872 V -4.576 H 0.693 V -6.911 H -8.714 V 8.669 H 0.347 V 6.334 H -5.872 V 2.312 l 5.872,0 z" /></g><g
           transform="translate(237.0625,211.1224)"
           id="g28"><path
             id="path30"
             style="fill:#91268f;fill-opacity:1;fill-rule:nonzero;stroke:none"
             d="M 0,0 H -4.438 V 2.382 H 7.328 V 0 H 2.844 V -13.198 H 0 Z" /></g><g
           transform="translate(253.8882,204.8353)"
           id="g32"><path
             id="path34"
             style="fill:#91268f;fill-opacity:1;fill-rule:nonzero;stroke:none"
             d="M 0,0 H -5.872 V -4.576 H 0.693 V -6.911 H -8.715 V 8.669 H 0.347 V 6.334 H -5.872 V 2.312 l 5.872,0 z" /></g><g
           transform="translate(267.2012,198.3636)"
           id="g36"><path
             id="path38"
             style="fill:#91268f;fill-opacity:1;fill-rule:nonzero;stroke:none"
             d="m 0,0 c -0.671,-0.323 -2.15,-0.693 -4.045,-0.693 -4.947,0 -7.953,3.096 -7.953,7.858 0,5.133 3.583,8.23 8.346,8.23 1.872,0 3.189,-0.394 3.767,-0.694 l -0.601,-2.265 c -0.74,0.324 -1.78,0.601 -3.051,0.601 -3.167,0 -5.455,-1.987 -5.455,-5.732 0,-3.446 1.988,-5.618 5.432,-5.618 1.133,0 2.334,0.232 3.097,0.555 z" /></g><g
           transform="translate(268.561,197.9241)"
           id="g40"><path
             id="path42"
             style="fill:#91268f;fill-opacity:1;fill-rule:nonzero;stroke:none"
             d="M 0,0 V 15.58 H 3.259 L 7.282,8.899 C 8.299,7.167 9.224,5.362 9.939,3.675 H 9.986 C 9.778,5.755 9.732,7.767 9.732,10.148 v 5.432 h 2.635 L 12.367,0 H 9.408 L 5.34,6.864 C 4.346,8.576 3.329,10.472 2.566,12.229 L 2.474,12.205 C 2.589,10.193 2.636,8.137 2.636,5.571 V 0 Z" /></g><g
           transform="translate(296.9902,205.8763)"
           id="g44"><path
             id="path46"
             style="fill:#91268f;fill-opacity:1;fill-rule:nonzero;stroke:none"
             d="m 0,0 c 0,-5.224 -3.167,-8.206 -7.442,-8.206 -4.416,0 -7.19,3.375 -7.19,7.928 0,4.808 3.028,8.183 7.42,8.183 C -2.682,7.905 0,4.46 0,0 m -11.627,-0.208 c 0,-3.189 1.595,-5.71 4.322,-5.71 2.751,0 4.301,2.566 4.301,5.826 0,2.935 -1.457,5.709 -4.301,5.709 -2.82,0 -4.322,-2.612 -4.322,-5.825" /></g><g
           transform="translate(298.3975,213.5042)"
           id="g48"><path
             id="path50"
             style="fill:#91268f;fill-opacity:1;fill-rule:nonzero;stroke:none"
             d="M 0,0 H 2.844 V -13.199 H 9.246 V -15.58 H 0 Z" /></g><g
           transform="translate(321.6729,205.8763)"
           id="g52"><path
             id="path54"
             style="fill:#91268f;fill-opacity:1;fill-rule:nonzero;stroke:none"
             d="m 0,0 c 0,-5.224 -3.167,-8.206 -7.442,-8.206 -4.416,0 -7.19,3.375 -7.19,7.928 0,4.808 3.028,8.183 7.42,8.183 C -2.681,7.905 0,4.46 0,0 m -11.627,-0.208 c 0,-3.189 1.595,-5.71 4.322,-5.71 2.751,0 4.301,2.566 4.301,5.826 0,2.935 -1.457,5.709 -4.301,5.709 -2.82,0 -4.322,-2.612 -4.322,-5.825" /></g><g
           transform="translate(335.5615,198.6409)"
           id="g56"><path
             id="path58"
             style="fill:#91268f;fill-opacity:1;fill-rule:nonzero;stroke:none"
             d="m 0,0 c -0.994,-0.37 -2.935,-0.879 -4.993,-0.879 -2.635,0 -4.646,0.671 -6.124,2.081 -1.388,1.318 -2.173,3.375 -2.173,5.732 0.022,4.948 3.513,8.09 8.667,8.09 1.919,0 3.421,-0.391 4.138,-0.739 l -0.623,-2.288 c -0.857,0.393 -1.897,0.671 -3.538,0.671 -3.329,0 -5.663,-1.965 -5.663,-5.595 0,-3.536 2.172,-5.64 5.408,-5.64 1.04,0 1.78,0.138 2.15,0.3 v 3.908 h -2.75 V 7.883 H 0 Z" /></g><path
           id="path60"
           style="fill:#91268f;fill-opacity:1;fill-rule:nonzero;stroke:none"
           d="m 340.273,197.924 h -2.843 v 15.58 h 2.843 z" /><g
           transform="translate(345.6123,202.3392)"
           id="g62"><path
             id="path64"
             style="fill:#91268f;fill-opacity:1;fill-rule:nonzero;stroke:none"
             d="m 0,0 -1.341,-4.415 h -2.934 l 4.991,15.58 h 3.63 L 9.408,-4.415 H 6.334 L 4.924,0 Z M 4.461,2.149 3.235,5.986 C 2.936,6.935 2.683,7.997 2.449,8.899 H 2.404 C 2.173,7.997 1.919,6.91 1.665,5.986 L 0.463,2.149 Z" /></g><g
           transform="translate(361.2148,213.2952)"
           id="g66"><path
             id="path68"
             style="fill:#91268f;fill-opacity:1;fill-rule:nonzero;stroke:none"
             d="m 0,0 c 1.271,0.186 2.843,0.325 4.53,0.325 2.913,0 4.901,-0.601 6.334,-1.804 1.526,-1.224 2.451,-3.097 2.451,-5.732 0,-2.798 -0.948,-4.854 -2.427,-6.194 -1.55,-1.411 -4.023,-2.128 -7.051,-2.128 -1.641,0 -2.889,0.093 -3.837,0.209 z m 2.843,-13.222 c 0.393,-0.069 0.994,-0.069 1.572,-0.069 3.698,-0.023 5.895,2.035 5.895,5.986 0.023,3.422 -1.966,5.411 -5.525,5.411 -0.902,0 -1.525,-0.07 -1.942,-0.163 z" /></g><g
           transform="translate(378.7334,202.3392)"
           id="g70"><path
             id="path72"
             style="fill:#91268f;fill-opacity:1;fill-rule:nonzero;stroke:none"
             d="m 0,0 -1.341,-4.415 h -2.934 l 4.991,15.58 h 3.63 L 9.409,-4.415 H 6.334 L 4.924,0 Z M 4.461,2.149 3.236,5.986 C 2.936,6.935 2.683,7.997 2.45,8.899 H 2.404 C 2.173,7.997 1.919,6.91 1.665,5.986 L 0.463,2.149 Z" /></g><path
           id="path74"
           style="fill:#91268f;fill-opacity:1;fill-rule:nonzero;stroke:none"
           d="m 397.617,197.924 h -2.843 v 15.58 h 2.843 z" /><g
           transform="translate(399.8135,197.9241)"
           id="g76"><path
             id="path78"
             style="fill:#91268f;fill-opacity:1;fill-rule:nonzero;stroke:none"
             d="M 0,0 V 15.58 H 3.259 L 7.28,8.899 C 8.297,7.167 9.223,5.362 9.939,3.675 H 9.985 C 9.776,5.755 9.73,7.767 9.73,10.148 v 5.432 h 2.636 V 0 H 9.407 L 5.338,6.864 C 4.346,8.576 3.328,10.472 2.565,12.229 L 2.473,12.205 C 2.588,10.193 2.635,8.137 2.635,5.571 V 0 Z" /></g><g
           transform="translate(414.4189,213.5042)"
           id="g80"><path
             id="path82"
             style="fill:#91268f;fill-opacity:1;fill-rule:nonzero;stroke:none"
             d="M 0,0 H 9.015 V -2.335 H 2.843 V -6.634 H 8.575 V -8.945 H 2.843 V -15.58 H 0 Z" /></g><g
           transform="translate(438.9629,205.8763)"
           id="g84"><path
             id="path86"
             style="fill:#91268f;fill-opacity:1;fill-rule:nonzero;stroke:none"
             d="m 0,0 c 0,-5.224 -3.167,-8.206 -7.443,-8.206 -4.415,0 -7.189,3.375 -7.189,7.928 0,4.808 3.029,8.183 7.421,8.183 C -2.682,7.905 0,4.46 0,0 m -11.627,-0.208 c 0,-3.189 1.595,-5.71 4.323,-5.71 2.751,0 4.299,2.566 4.299,5.826 0,2.935 -1.456,5.709 -4.299,5.709 -2.819,0 -4.323,-2.612 -4.323,-5.825" /></g><g
           transform="translate(440.3721,213.2737)"
           id="g88"><path
             id="path90"
             style="fill:#91268f;fill-opacity:1;fill-rule:nonzero;stroke:none"
             d="m 0,0 c 1.086,0.208 2.657,0.347 4.299,0.347 2.242,0 3.745,-0.37 4.807,-1.249 0.857,-0.716 1.341,-1.803 1.341,-3.145 0,-2.01 -1.364,-3.373 -2.843,-3.883 v -0.069 c 1.132,-0.416 1.803,-1.502 2.172,-3.006 0.51,-1.941 0.926,-3.744 1.226,-4.345 H 8.091 c -0.234,0.462 -0.626,1.734 -1.042,3.676 -0.462,2.034 -1.178,2.682 -2.796,2.728 H 2.819 v -6.404 l -2.819,0 z m 2.819,-6.866 h 1.687 c 1.919,0 3.098,1.017 3.098,2.565 0,1.689 -1.179,2.496 -3.028,2.496 -0.901,0 -1.479,-0.068 -1.757,-0.137 z" /></g><g
           transform="translate(465.6338,204.2816)"
           id="g92"><path
             id="path94"
             style="fill:#91268f;fill-opacity:1;fill-rule:nonzero;stroke:none"
             d="M 0,0 C -0.093,2.01 -0.208,4.438 -0.185,6.541 H -0.254 C -0.764,4.645 -1.409,2.542 -2.103,0.577 l -2.289,-6.75 h -2.173 l -2.081,6.657 c -0.6,1.989 -1.155,4.115 -1.571,6.057 h -0.046 c -0.07,-2.034 -0.162,-4.508 -0.277,-6.634 l -0.348,-6.264 h -2.658 l 1.04,15.58 h 3.745 l 2.034,-6.264 c 0.555,-1.826 1.04,-3.676 1.433,-5.41 h 0.069 c 0.417,1.687 0.95,3.607 1.55,5.432 l 2.15,6.242 H 2.173 L 3.075,-6.357 H 0.301 Z" /></g><g
           transform="translate(473.5352,202.3392)"
           id="g96"><path
             id="path98"
             style="fill:#91268f;fill-opacity:1;fill-rule:nonzero;stroke:none"
             d="m 0,0 -1.341,-4.415 h -2.935 l 4.992,15.58 h 3.63 L 9.408,-4.415 H 6.333 L 4.924,0 Z M 4.461,2.149 3.235,5.986 C 2.935,6.935 2.682,7.997 2.45,8.899 H 2.404 C 2.173,7.997 1.918,6.91 1.664,5.986 L 0.463,2.149 Z" /></g><g
           transform="translate(494.752,198.387)"
           id="g100"><path
             id="path102"
             style="fill:#91268f;fill-opacity:1;fill-rule:nonzero;stroke:none"
             d="M 0,0 C -0.647,-0.323 -2.011,-0.67 -3.837,-0.693 L -4.322,-1.55 c 0.855,-0.185 1.641,-0.786 1.641,-1.803 0,-1.501 -1.318,-2.035 -2.59,-2.035 -0.647,0 -1.34,0.141 -1.826,0.417 l 0.416,1.272 c 0.325,-0.209 0.832,-0.323 1.272,-0.323 0.485,0 0.902,0.184 0.902,0.647 0,0.509 -0.625,0.786 -1.805,0.9 l 0.925,1.872 c -4.136,0.51 -6.61,3.399 -6.61,7.745 0,5.132 3.583,8.229 8.345,8.229 1.872,0 3.191,-0.392 3.768,-0.693 l -0.625,-2.266 c -0.716,0.323 -1.757,0.603 -3.027,0.603 -3.168,0 -5.455,-1.99 -5.455,-5.734 0,-3.445 1.986,-5.618 5.408,-5.618 1.155,0 2.358,0.233 3.122,0.556 z" /></g><g
           transform="translate(499.5107,202.3392)"
           id="g104"><path
             id="path106"
             style="fill:#91268f;fill-opacity:1;fill-rule:nonzero;stroke:none"
             d="m 0,0 -1.341,-4.415 h -2.935 l 4.992,15.58 h 3.63 L 9.408,-4.415 H 6.357 L 4.947,0 Z m -0.417,12.112 c -0.046,1.711 0.626,2.682 1.688,2.682 0.579,0 0.995,-0.207 1.434,-0.462 0.393,-0.23 0.739,-0.438 1.064,-0.438 0.369,0 0.553,0.183 0.623,0.947 h 1.364 c 0.046,-1.78 -0.555,-2.59 -1.711,-2.59 -0.555,0 -1.017,0.185 -1.455,0.439 -0.441,0.231 -0.718,0.44 -1.041,0.44 -0.323,0 -0.532,-0.369 -0.579,-1.018 z M 4.484,2.149 3.235,5.986 C 2.936,6.935 2.682,7.997 2.449,8.899 H 2.404 C 2.173,7.997 1.919,6.91 1.664,5.986 L 0.463,2.149 Z" /></g><g
           transform="translate(523.3857,205.8763)"
           id="g108"><path
             id="path110"
             style="fill:#91268f;fill-opacity:1;fill-rule:nonzero;stroke:none"
             d="m 0,0 c 0,-5.224 -3.166,-8.206 -7.443,-8.206 -4.415,0 -7.189,3.375 -7.189,7.928 0,4.808 3.029,8.183 7.421,8.183 C -2.682,7.905 0,4.46 0,0 m -11.627,-0.208 c 0,-3.189 1.595,-5.71 4.323,-5.71 2.749,0 4.299,2.566 4.299,5.826 0,2.935 -1.456,5.709 -4.299,5.709 -2.819,0 -4.323,-2.612 -4.323,-5.825" /></g><g
           transform="translate(231.9863,317.8382)"
           id="g112"><path
             id="path114"
             style="fill:#58595b;fill-opacity:1;fill-rule:nonzero;stroke:none"
             d="M 0,0 -9.353,46.767 H -9.682 V 0 h -5.929 V 52.695 H -5.072 L 4.15,5.928 h 0.329 v 46.767 h 5.929 L 10.408,0 Z" /></g><g
           transform="translate(264.9858,370.5335)"
           id="g116"><path
             id="path118"
             style="fill:#58595b;fill-opacity:1;fill-rule:nonzero;stroke:none"
             d="m 0,0 h 5.928 v -43.869 c 0,-1.318 -0.242,-2.548 -0.724,-3.688 C 4.72,-48.699 4.051,-49.698 3.195,-50.555 2.339,-51.41 1.328,-52.092 0.165,-52.596 -1,-53.101 -2.24,-53.353 -3.557,-53.353 h -3.952 c -1.318,0 -2.547,0.252 -3.689,0.757 -1.142,0.504 -2.14,1.186 -2.997,2.041 -0.856,0.857 -1.538,1.856 -2.042,2.998 -0.505,1.14 -0.757,2.37 -0.757,3.688 V 0 h 5.928 v -43.869 c 0,-1.053 0.329,-1.91 0.988,-2.568 0.659,-0.66 1.515,-0.988 2.569,-0.988 h 3.952 c 1.054,0 1.91,0.328 2.569,0.988 0.659,0.658 0.988,1.515 0.988,2.568 z m -3.623,2.239 h -5.73 l 6.653,8.629 h 5.73 z" /></g><g
           transform="translate(292.5186,337.0721)"
           id="g120"><path
             id="path122"
             style="fill:#58595b;fill-opacity:1;fill-rule:nonzero;stroke:none"
             d="m 0,0 h 5.928 v -10.408 c 0,-1.317 -0.242,-2.547 -0.726,-3.688 C 4.72,-15.238 4.051,-16.236 3.193,-17.093 2.338,-17.949 1.326,-18.63 0.163,-19.134 -1,-19.639 -2.24,-19.892 -3.558,-19.892 H -7.51 c -1.318,0 -2.547,0.253 -3.688,0.758 -1.142,0.504 -2.141,1.185 -2.997,2.041 -0.857,0.857 -1.538,1.855 -2.042,2.997 -0.506,1.141 -0.758,2.371 -0.758,3.688 v 34.779 c 0,1.318 0.252,2.558 0.758,3.721 0.504,1.163 1.185,2.175 2.042,3.03 0.856,0.857 1.855,1.526 2.997,2.01 1.141,0.483 2.37,0.725 3.688,0.725 h 3.952 c 1.318,0 2.558,-0.242 3.721,-0.725 1.163,-0.484 2.175,-1.153 3.03,-2.01 0.858,-0.855 1.527,-1.867 2.009,-3.03 0.484,-1.163 0.726,-2.403 0.726,-3.721 v -8.3 H 0 v 8.3 c 0,1.054 -0.33,1.91 -0.988,2.569 -0.659,0.659 -1.517,0.989 -2.57,0.989 H -7.51 c -1.053,0 -1.909,-0.33 -2.569,-0.989 -0.658,-0.659 -0.987,-1.515 -0.987,-2.569 v -34.779 c 0,-1.053 0.329,-1.91 0.987,-2.568 0.66,-0.659 1.516,-0.988 2.569,-0.988 h 3.952 c 0.878,0 1.547,0.088 2.009,0.263 0.461,0.176 0.791,0.418 0.988,0.725 0.199,0.306 0.319,0.68 0.363,1.12 0.044,0.438 0.065,0.922 0.065,1.448 l 0,10.408 z" /></g><g
           transform="translate(307.9961,323.7664)"
           id="g124"><path
             id="path126"
             style="fill:#58595b;fill-opacity:1;fill-rule:nonzero;stroke:none"
             d="M 0,0 H 13.042 V -5.928 H -5.863 V 46.767 H 0 Z" /></g><g
           transform="translate(328.6123,364.6053)"
           id="g128"><path
             id="path130"
             style="fill:#58595b;fill-opacity:1;fill-rule:nonzero;stroke:none"
             d="m 0,0 v -14.755 h 11.263 v -5.928 H 0 v -20.156 h 13.041 v -5.928 H -5.929 V 5.928 h 18.97 V 0 Z" /></g><g
           transform="translate(366.5508,326.6644)"
           id="g132"><path
             id="path134"
             style="fill:#58595b;fill-opacity:1;fill-rule:nonzero;stroke:none"
             d="M 0,0 C 0,-1.318 -0.24,-2.547 -0.723,-3.688 -1.207,-4.83 -1.876,-5.829 -2.732,-6.686 -3.589,-7.541 -4.6,-8.223 -5.763,-8.727 -6.928,-9.232 -8.168,-9.484 -9.483,-9.484 h -3.953 c -1.318,0 -2.547,0.252 -3.69,0.757 -1.142,0.504 -2.14,1.186 -2.996,2.041 -0.857,0.857 -1.538,1.856 -2.042,2.998 -0.505,1.141 -0.758,2.37 -0.758,3.688 v 34.779 c 0,1.317 0.253,2.558 0.758,3.721 0.504,1.163 1.185,2.174 2.042,3.03 0.856,0.857 1.854,1.525 2.996,2.009 1.143,0.483 2.372,0.725 3.69,0.725 h 3.953 c 1.315,0 2.555,-0.242 3.72,-0.725 1.163,-0.484 2.174,-1.152 3.031,-2.009 0.856,-0.856 1.525,-1.867 2.009,-3.03 C -0.24,37.337 0,36.096 0,34.779 Z m -5.928,34.779 c 0,1.053 -0.328,1.91 -0.988,2.568 -0.657,0.66 -1.515,0.989 -2.567,0.989 h -3.953 c -1.054,0 -1.91,-0.329 -2.57,-0.989 -0.658,-0.658 -0.988,-1.515 -0.988,-2.568 V 0 c 0,-1.053 0.33,-1.91 0.988,-2.568 0.66,-0.66 1.516,-0.988 2.57,-0.988 h 3.953 c 1.052,0 1.91,0.328 2.567,0.988 0.66,0.658 0.988,1.515 0.988,2.568 z" /></g><g
           transform="translate(387.958,364.6053)"
           id="g136"><path
             id="path138"
             style="fill:#58595b;fill-opacity:1;fill-rule:nonzero;stroke:none"
             d="m 0,0 v -14.755 h 11.263 v -5.928 H 0 v -20.156 h 13.043 v -5.928 H -5.928 V 5.928 H 13.043 V 0 Z" /></g><g
           transform="translate(424.9766,326.6644)"
           id="g140"><path
             id="path142"
             style="fill:#58595b;fill-opacity:1;fill-rule:nonzero;stroke:none"
             d="M 0,0 C 0,-1.318 -0.242,-2.547 -0.725,-3.688 -1.209,-4.83 -1.878,-5.829 -2.733,-6.686 -3.59,-7.541 -4.601,-8.223 -5.764,-8.727 -6.928,-9.232 -8.168,-9.484 -9.485,-9.484 h -3.69 c -1.317,0 -2.547,0.252 -3.688,0.757 -1.142,0.504 -2.14,1.186 -2.997,2.041 -0.856,0.857 -1.537,1.856 -2.04,2.998 -0.508,1.141 -0.759,2.37 -0.759,3.688 v 9.75 h 5.929 V 0 c 0,-1.053 0.328,-1.91 0.987,-2.568 0.658,-0.66 1.515,-0.988 2.568,-0.988 h 3.69 c 1.053,0 1.91,0.328 2.568,0.988 0.659,0.658 0.988,1.515 0.988,2.568 v 5.072 c 0,1.976 -0.241,3.645 -0.724,5.006 -0.484,1.361 -1.131,2.537 -1.944,3.525 -0.812,0.987 -1.79,1.853 -2.931,2.6 -1.142,0.748 -2.369,1.516 -3.688,2.307 -2.329,1.404 -4.15,3.161 -5.467,5.269 -1.318,2.107 -1.976,4.567 -1.976,7.377 v 3.623 c 0,1.317 0.251,2.558 0.759,3.721 0.503,1.163 1.184,2.174 2.04,3.03 0.857,0.857 1.855,1.525 2.997,2.009 1.141,0.483 2.371,0.725 3.688,0.725 h 3.69 c 1.317,0 2.557,-0.242 3.721,-0.725 1.163,-0.484 2.174,-1.152 3.031,-2.009 0.855,-0.856 1.524,-1.867 2.008,-3.03 C -0.242,37.337 0,36.096 0,34.779 h -5.929 c 0,1.053 -0.329,1.91 -0.988,2.568 -0.658,0.66 -1.515,0.989 -2.568,0.989 h -3.69 c -1.053,0 -1.91,-0.329 -2.568,-0.989 -0.659,-0.658 -0.987,-1.515 -0.987,-2.568 v -3.623 c 0,-1.23 0.197,-2.295 0.592,-3.195 0.395,-0.9 0.955,-1.712 1.68,-2.437 0.723,-0.724 1.58,-1.395 2.568,-2.008 0.988,-0.617 2.053,-1.275 3.195,-1.977 1.273,-0.747 2.437,-1.625 3.49,-2.634 1.056,-1.011 1.966,-2.185 2.735,-3.525 0.767,-1.339 1.371,-2.854 1.811,-4.545 C -0.221,9.145 0,7.223 0,5.072 Z" /></g><g
           transform="translate(448.4248,317.8382)"
           id="g144"><path
             id="path146"
             style="fill:#58595b;fill-opacity:1;fill-rule:nonzero;stroke:none"
             d="M 0,0 -2.371,12.778 H -14.557 L -16.862,0 h -5.929 l 8.498,50.85 c 0.087,0.528 0.404,1.031 0.955,1.515 0.548,0.483 1.175,0.725 1.877,0.725 h 5.862 c 0.702,0 1.328,-0.23 1.877,-0.692 0.549,-0.46 0.867,-0.977 0.955,-1.548 L 5.928,0 Z m -7.773,46.305 c 0,0.176 -0.044,0.33 -0.131,0.462 -0.176,0.263 -0.352,0.395 -0.528,0.395 h -0.196 c -0.266,0 -0.429,-0.111 -0.495,-0.329 -0.065,-0.22 -0.122,-0.396 -0.165,-0.528 l -4.413,-27.599 h 10.472 z" /></g><g
           transform="translate(491.832,370.5335)"
           id="g148"><path
             id="path150"
             style="fill:#58595b;fill-opacity:1;fill-rule:nonzero;stroke:none"
             d="m 0,0 1.976,-52.695 h -5.928 l -1.91,46.767 h -0.659 l -7.444,-46.109 h -5.929 l -7.376,46.109 h -0.66 l -1.974,-46.767 h -5.928 L -33.791,0 h 11.79 L -16.929,-38.204 -11.726,0 Z" /></g><g
           transform="translate(515.4111,337.0721)"
           id="g152"><path
             id="path154"
             style="fill:#58595b;fill-opacity:1;fill-rule:nonzero;stroke:none"
             d="m 0,0 h 5.929 v -10.408 c 0,-1.317 -0.242,-2.547 -0.725,-3.688 -0.483,-1.142 -1.151,-2.14 -2.009,-2.997 -0.855,-0.856 -1.867,-1.537 -3.03,-2.041 -1.165,-0.505 -2.404,-0.758 -3.721,-0.758 h -3.953 c -1.316,0 -2.547,0.253 -3.688,0.758 -1.143,0.504 -2.141,1.185 -2.996,2.041 -0.858,0.857 -1.538,1.855 -2.042,2.997 -0.505,1.141 -0.758,2.371 -0.758,3.688 v 34.779 c 0,1.318 0.253,2.558 0.758,3.721 0.504,1.163 1.184,2.175 2.042,3.03 0.855,0.857 1.853,1.526 2.996,2.01 1.141,0.483 2.372,0.725 3.688,0.725 h 3.953 c 1.317,0 2.556,-0.242 3.721,-0.725 1.163,-0.484 2.175,-1.153 3.03,-2.01 0.858,-0.855 1.526,-1.867 2.009,-3.03 0.483,-1.163 0.725,-2.403 0.725,-3.721 v -8.3 H 0 v 8.3 c 0,1.054 -0.327,1.91 -0.987,2.569 -0.659,0.659 -1.516,0.989 -2.569,0.989 h -3.953 c -1.054,0 -1.91,-0.33 -2.568,-0.989 -0.658,-0.659 -0.988,-1.515 -0.988,-2.569 v -34.779 c 0,-1.053 0.33,-1.91 0.988,-2.568 0.658,-0.659 1.514,-0.988 2.568,-0.988 h 3.953 c 0.878,0 1.548,0.088 2.008,0.263 0.462,0.176 0.79,0.418 0.988,0.725 0.199,0.306 0.319,0.68 0.364,1.12 0.043,0.438 0.065,0.922 0.065,1.448 l 0,10.408 z" /></g><g
           transform="translate(216.5005,300.7596)"
           id="g156"><path
             id="path158"
             style="fill:#58595b;fill-opacity:1;fill-rule:nonzero;stroke:none"
             d="m 0,0 h 12.38 c 1.51,0 2.931,-0.264 4.265,-0.793 1.333,-0.528 2.491,-1.245 3.472,-2.152 0.982,-0.905 1.748,-2 2.303,-3.283 0.553,-1.283 0.83,-2.68 0.83,-4.19 V -49.52 c 0,-1.51 -0.277,-2.92 -0.83,-4.228 -0.555,-1.309 -1.321,-2.453 -2.303,-3.435 -0.981,-0.981 -2.139,-1.762 -3.472,-2.339 -1.334,-0.579 -2.755,-0.869 -4.265,-0.869 H 0 Z m 3.775,-3.774 v -52.842 h 8.605 c 1.006,0 1.936,0.188 2.793,0.566 0.855,0.377 1.597,0.88 2.227,1.51 0.629,0.628 1.132,1.383 1.51,2.265 0.377,0.879 0.566,1.798 0.566,2.755 v 39.102 c 0,1.913 -0.692,3.497 -2.076,4.756 -1.385,1.257 -3.058,1.888 -5.02,1.888 z" /></g><g
           transform="translate(253.4136,296.9852)"
           id="g160"><path
             id="path162"
             style="fill:#58595b;fill-opacity:1;fill-rule:nonzero;stroke:none"
             d="m 0,0 v -21.439 h 12.908 v -3.775 H 0 v -27.628 h 14.946 v -3.774 H -3.775 V 3.774 H 14.946 V 0 Z" /></g><path
           id="path164"
           style="fill:#58595b;fill-opacity:1;fill-rule:nonzero;stroke:none"
           d="m 292.288,240.369 h -3.775 v 60.391 h 3.775 z" /><g
           transform="translate(321.5781,240.3694)"
           id="g166"><path
             id="path168"
             style="fill:#58595b;fill-opacity:1;fill-rule:nonzero;stroke:none"
             d="m 0,0 -12.606,56.616 h -1.51 V 0 h -3.776 v 60.391 h 8.305 L 2.869,3.773 h 1.51 V 60.391 H 8.151 V 0 Z" /></g><g
           transform="translate(362.8672,250.4847)"
           id="g170"><path
             id="path172"
             style="fill:#58595b;fill-opacity:1;fill-rule:nonzero;stroke:none"
             d="m 0,0 c 0,-1.51 -0.276,-2.92 -0.829,-4.229 -0.556,-1.308 -1.322,-2.453 -2.303,-3.434 -0.981,-0.981 -2.139,-1.762 -3.472,-2.339 -1.335,-0.578 -2.756,-0.869 -4.265,-0.869 h -1.51 c -1.511,0 -2.919,0.291 -4.227,0.869 -1.31,0.577 -2.454,1.358 -3.435,2.339 -0.981,0.981 -1.763,2.126 -2.34,3.434 -0.58,1.309 -0.869,2.719 -0.869,4.229 v 39.857 c 0,1.509 0.289,2.931 0.869,4.265 0.577,1.333 1.359,2.491 2.34,3.472 0.981,0.981 2.125,1.748 3.435,2.303 1.308,0.553 2.716,0.83 4.227,0.83 h 1.51 c 1.509,0 2.93,-0.277 4.265,-0.83 1.333,-0.555 2.491,-1.322 3.472,-2.303 0.981,-0.981 1.747,-2.139 2.303,-3.472 C -0.276,42.788 0,41.366 0,39.857 Z m -3.773,39.857 c 0,1.006 -0.19,1.937 -0.567,2.793 -0.379,0.855 -0.882,1.597 -1.51,2.227 -0.63,0.629 -1.373,1.133 -2.226,1.509 -0.858,0.379 -1.787,0.567 -2.793,0.567 h -1.51 c -0.957,0 -1.875,-0.188 -2.757,-0.567 -0.88,-0.376 -1.635,-0.88 -2.263,-1.509 -0.63,-0.63 -1.132,-1.372 -1.51,-2.227 -0.377,-0.856 -0.568,-1.787 -0.568,-2.793 V 0 c 0,-0.958 0.191,-1.876 0.568,-2.755 0.378,-0.882 0.88,-1.637 1.51,-2.265 0.628,-0.63 1.383,-1.132 2.263,-1.51 0.882,-0.378 1.8,-0.566 2.757,-0.566 h 1.51 c 1.006,0 1.935,0.188 2.793,0.566 0.853,0.378 1.596,0.88 2.226,1.51 0.628,0.628 1.131,1.383 1.51,2.265 0.377,0.879 0.567,1.797 0.567,2.755 z" /></g><g
           transform="translate(394.9492,300.7596)"
           id="g174"><path
             id="path176"
             style="fill:#58595b;fill-opacity:1;fill-rule:nonzero;stroke:none"
             d="M 0,0 H 3.775 L -6.869,-58.579 c -0.102,-0.604 -0.465,-1.182 -1.095,-1.736 -0.629,-0.553 -1.347,-0.831 -2.15,-0.831 h -2.568 c -0.804,0 -1.522,0.265 -2.152,0.793 -0.629,0.529 -0.994,1.119 -1.093,1.774 L -26.722,0 h 3.775 l 10.492,-56.39 c 0,-0.15 0.05,-0.302 0.15,-0.452 0.101,-0.102 0.191,-0.215 0.265,-0.341 0.075,-0.125 0.189,-0.188 0.34,-0.188 h 0.604 c 0.301,0 0.492,0.124 0.566,0.377 0.075,0.251 0.138,0.454 0.189,0.604 z" /></g><g
           transform="translate(427.1826,240.3694)"
           id="g178"><path
             id="path180"
             style="fill:#58595b;fill-opacity:1;fill-rule:nonzero;stroke:none"
             d="M 0,0 -3.021,16.153 H -19.778 L -22.722,0 h -3.774 l 10.493,58.275 c 0.1,0.605 0.464,1.183 1.095,1.738 0.628,0.552 1.345,0.83 2.15,0.83 h 2.567 c 0.805,0 1.522,-0.264 2.151,-0.794 0.63,-0.528 0.993,-1.119 1.095,-1.774 L 3.774,0 Z m -19.099,19.928 h 15.4 l -6.718,36.159 c 0,0.201 -0.051,0.376 -0.152,0.529 -0.202,0.301 -0.403,0.452 -0.603,0.452 h -0.604 c -0.302,0 -0.491,-0.127 -0.567,-0.378 -0.074,-0.252 -0.138,-0.453 -0.188,-0.603 z" /></g><g
           transform="translate(440.9209,225.8753)"
           id="g182"><path
             id="path184"
             style="fill:#58595b;fill-opacity:1;fill-rule:nonzero;stroke:none"
             d="m 0,0 c 0.856,-0.401 1.521,-0.69 2,-0.869 0.479,-0.175 0.993,-0.264 1.548,-0.264 1.711,0 3.095,0.491 4.151,1.473 1.058,0.981 1.586,2.151 1.586,3.511 0,1.257 -0.453,2.403 -1.358,3.434 C 7.021,8.317 5.838,8.832 4.378,8.832 h -2.49 l 0.905,5.511 c -2.164,0.704 -3.938,1.987 -5.321,3.849 -1.385,1.862 -2.076,4.001 -2.076,6.417 v 39.857 c 0,1.51 0.289,2.932 0.868,4.265 0.579,1.333 1.359,2.491 2.34,3.472 0.981,0.982 2.125,1.748 3.434,2.303 1.31,0.554 2.718,0.831 4.228,0.831 h 1.509 c 1.51,0 2.931,-0.277 4.265,-0.831 1.334,-0.555 2.491,-1.321 3.474,-2.303 0.98,-0.981 1.748,-2.139 2.301,-3.472 0.554,-1.333 0.831,-2.755 0.831,-4.265 v -9.511 h -3.774 v 9.511 c 0,1.006 -0.189,1.938 -0.566,2.793 -0.378,0.856 -0.883,1.598 -1.511,2.227 -0.63,0.629 -1.372,1.133 -2.227,1.51 -0.856,0.378 -1.787,0.566 -2.793,0.566 H 6.266 C 5.31,71.562 4.392,71.374 3.511,70.996 2.63,70.619 1.875,70.115 1.246,69.486 0.616,68.857 0.114,68.115 -0.264,67.259 -0.641,66.404 -0.831,65.472 -0.831,64.466 V 24.609 c 0,-0.957 0.19,-1.876 0.567,-2.755 0.378,-0.881 0.88,-1.637 1.51,-2.265 0.629,-0.63 1.384,-1.133 2.265,-1.509 0.881,-0.379 1.799,-0.566 2.755,-0.566 h 1.509 c 1.963,0 3.612,0.69 4.945,2.075 1.334,1.384 2.001,3.057 2.001,5.02 v 11.927 h 3.925 V 24.609 c 0,-1.508 -0.277,-2.92 -0.831,-4.228 -0.553,-1.308 -1.321,-2.453 -2.301,-3.434 -0.983,-0.982 -2.14,-1.762 -3.474,-2.34 C 10.706,14.029 9.285,13.739 7.775,13.739 H 6.492 L 6.19,12.455 c 2.012,-0.452 3.663,-1.497 4.945,-3.132 1.282,-1.635 1.926,-3.46 1.926,-5.472 0,-1.209 -0.228,-2.341 -0.68,-3.398 C 11.928,-0.604 11.285,-1.535 10.455,-2.341 9.625,-3.145 8.618,-3.774 7.436,-4.227 6.252,-4.68 4.956,-4.906 3.548,-4.906 c -0.906,0 -1.838,0.163 -2.793,0.49 -0.957,0.327 -2.09,0.919 -3.397,1.773 z" /></g><g
           transform="translate(491.0439,240.3694)"
           id="g186"><path
             id="path188"
             style="fill:#58595b;fill-opacity:1;fill-rule:nonzero;stroke:none"
             d="M 0,0 -3.02,16.153 H -19.777 L -22.722,0 h -3.774 l 10.493,58.275 c 0.101,0.605 0.464,1.183 1.095,1.738 0.629,0.552 1.345,0.83 2.15,0.83 h 2.568 c 0.804,0 1.521,-0.264 2.15,-0.794 0.63,-0.528 0.993,-1.119 1.096,-1.774 L 3.774,0 Z m -21.212,67.561 c 0.402,0.453 0.993,0.956 1.775,1.509 0.779,0.555 1.748,0.831 2.905,0.831 0.907,0 1.8,-0.139 2.679,-0.416 0.881,-0.277 1.738,-0.577 2.567,-0.904 0.831,-0.33 1.675,-0.631 2.529,-0.908 0.857,-0.276 1.71,-0.414 2.568,-0.414 1.005,0 1.823,0.213 2.453,0.642 0.63,0.427 1.219,0.917 1.773,1.472 L -1.586,65.9 c -0.402,-0.453 -0.98,-0.968 -1.735,-1.547 -0.756,-0.58 -1.712,-0.869 -2.868,-0.869 -0.907,0 -1.801,0.139 -2.68,0.416 -0.882,0.277 -1.737,0.578 -2.567,0.906 -0.831,0.326 -1.672,0.628 -2.529,0.904 -0.856,0.277 -1.711,0.417 -2.567,0.417 -1.007,0 -1.837,-0.201 -2.49,-0.605 -0.655,-0.402 -1.26,-0.879 -1.813,-1.434 z m 2.113,-47.633 h 15.4 l -6.718,36.159 c 0,0.201 -0.051,0.376 -0.151,0.529 -0.202,0.301 -0.404,0.452 -0.604,0.452 h -0.603 c -0.303,0 -0.492,-0.127 -0.568,-0.378 -0.074,-0.252 -0.138,-0.453 -0.187,-0.603 z" /></g><g
           transform="translate(523.4277,250.4847)"
           id="g190"><path
             id="path192"
             style="fill:#58595b;fill-opacity:1;fill-rule:nonzero;stroke:none"
             d="m 0,0 c 0,-1.51 -0.276,-2.92 -0.829,-4.229 -0.555,-1.308 -1.322,-2.453 -2.303,-3.434 -0.981,-0.981 -2.139,-1.762 -3.472,-2.339 -1.335,-0.578 -2.756,-0.869 -4.266,-0.869 h -1.509 c -1.51,0 -2.919,0.291 -4.227,0.869 -1.31,0.577 -2.455,1.358 -3.435,2.339 -0.981,0.981 -1.762,2.126 -2.34,3.434 -0.58,1.309 -0.869,2.719 -0.869,4.229 v 39.857 c 0,1.509 0.289,2.931 0.869,4.265 0.578,1.333 1.359,2.491 2.34,3.472 0.98,0.981 2.125,1.748 3.435,2.303 1.308,0.553 2.717,0.83 4.227,0.83 h 1.509 c 1.51,0 2.931,-0.277 4.266,-0.83 1.333,-0.555 2.491,-1.322 3.472,-2.303 0.981,-0.981 1.748,-2.139 2.303,-3.472 C -0.276,42.788 0,41.366 0,39.857 Z m -3.773,39.857 c 0,1.006 -0.19,1.937 -0.567,2.793 -0.378,0.855 -0.881,1.597 -1.51,2.227 -0.63,0.629 -1.372,1.133 -2.226,1.509 -0.858,0.379 -1.787,0.567 -2.794,0.567 h -1.509 c -0.957,0 -1.875,-0.188 -2.756,-0.567 -0.881,-0.376 -1.636,-0.88 -2.264,-1.509 -0.63,-0.63 -1.132,-1.372 -1.51,-2.227 -0.377,-0.856 -0.568,-1.787 -0.568,-2.793 V 0 c 0,-0.958 0.191,-1.876 0.568,-2.755 0.378,-0.882 0.88,-1.637 1.51,-2.265 0.628,-0.63 1.383,-1.132 2.264,-1.51 0.881,-0.378 1.799,-0.566 2.756,-0.566 h 1.509 c 1.007,0 1.936,0.188 2.794,0.566 0.854,0.378 1.596,0.88 2.226,1.51 0.629,0.628 1.132,1.383 1.51,2.265 0.377,0.879 0.567,1.797 0.567,2.755 z" /></g></g></g></g></svg>